HIERARCHY
ROOT Hips
{
	OFFSET -171.749893 91.474121 45.959751
	CHANNELS 6 Xposition Yposition Zposition Zrotation Yrotation Xrotation 
	JOINT LeftUpLeg
	{
		OFFSET 0.103457 1.857826 10.548511
		CHANNELS 3 Zrotation Yrotation Xrotation
		JOINT LeftLeg
		{
			OFFSET 43.500004 -0.000023 -0.000002
			CHANNELS 3 Zrotation Yrotation Xrotation
			JOINT LeftFoot
			{
				OFFSET 42.372200 0.000019 -0.000004
				CHANNELS 3 Zrotation Yrotation Xrotation
				JOINT LeftToe
				{
					OFFSET 17.299992 -0.000002 0.000010
					CHANNELS 3 Zrotation Yrotation Xrotation
					End Site
					{
						OFFSET 0.000000 0.000000 0.000000
					}
				}
			}
		}
	}
	JOINT RightUpLeg
	{
		OFFSET 0.103460 1.857830 -10.548507
		CHANNELS 3 Zrotation Yrotation Xrotation
		JOINT RightLeg
		{
			OFFSET 43.500042 -0.000023 0.000004
			CHANNELS 3 Zrotation Yrotation Xrotation
			JOINT RightFoot
			{
				OFFSET 42.372261 -0.000004 0.000010
				CHANNELS 3 Zrotation Yrotation Xrotation
				JOINT RightToe
				{
					OFFSET 17.299994 -0.000004 0.000023
					CHANNELS 3 Zrotation Yrotation Xrotation
					End Site
					{
						OFFSET 0.000000 0.000000 0.000000
					}
				}
			}
		}
	}
	JOINT Spine
	{
		OFFSET 6.901968 -2.603732 -0.000001
		CHANNELS 3 Zrotation Yrotation Xrotation
		JOINT Spine1
		{
			OFFSET 12.588099 -0.000002 -0.000003
			CHANNELS 3 Zrotation Yrotation Xrotation
			JOINT Spine2
			{
				OFFSET 12.343203 0.000006 0.000013
				CHANNELS 3 Zrotation Yrotation Xrotation
				JOINT Neck
				{
					OFFSET 25.832897 -0.000006 -0.000003
					CHANNELS 3 Zrotation Yrotation Xrotation
					JOINT Head
					{
						OFFSET 11.766602 0.000011 -0.000001
						CHANNELS 3 Zrotation Yrotation Xrotation
						End Site
						{
							OFFSET 0.000000 0.000000 0.000000
						}
					}
				}
				JOINT LeftShoulder
				{
					OFFSET 19.745899 -1.480368 6.000101
					CHANNELS 3 Zrotation Yrotation Xrotation
					JOINT LeftArm
					{
						OFFSET 11.284125 -0.000008 -0.000014
						CHANNELS 3 Zrotation Yrotation Xrotation
						JOINT LeftForeArm
						{
							OFFSET 33.000042 0.000005 0.000034
							CHANNELS 3 Zrotation Yrotation Xrotation
							JOINT LeftHand
							{
								OFFSET 25.200005 0.000015 -0.000001
								CHANNELS 3 Zrotation Yrotation Xrotation
								End Site
								{
									OFFSET 0.000000 0.000000 0.000000
								}
							}
						}
					}
				}
				JOINT RightShoulder
				{
					OFFSET 19.746099 -1.480375 -6.000082
					CHANNELS 3 Zrotation Yrotation Xrotation
					JOINT RightArm
					{
						OFFSET 11.284144 -0.000014 -0.000017
						CHANNELS 3 Zrotation Yrotation Xrotation
						JOINT RightForeArm
						{
							OFFSET 33.000092 0.000015 0.000010
							CHANNELS 3 Zrotation Yrotation Xrotation
							JOINT RightHand
							{
								OFFSET 25.199768 0.000141 0.000429
								CHANNELS 3 Zrotation Yrotation Xrotation
								End Site
								{
									OFFSET 0.000000 0.000000 0.000000
								}
							}
						}
					}
				}
			}
		}
	}
}
MOTION
Frames: 5
Frame Time: 0.033333
-280.881805 12.783340 -171.714706 -1.575530 68.784404 88.722115 120.073674 0.956567 177.101997 -127.434473 2.920625 -1.667187 73.209144 -5.738388 -21.185174 21.454553 0.003094 -0.000001 119.545782 -12.502191 -166.240452 -94.841234 -2.164868 7.712259 71.520461 -0.632415 14.848582 21.454557 -0.003114 -0.000027 10.330144 1.898943 0.165203 10.661390 3.748861 0.503689 10.342566 3.752000 0.481035 21.157206 -41.686878 -3.032886 -23.548745 -1.245541 -3.619821 73.345781 -77.029665 105.919118 -90.119060 42.074276 -100.794215 -98.808788 3.705696 2.436210 10.933739 -28.508200 -22.221809 103.990006 71.926393 -76.011775 -76.734648 -55.510252 35.281294 -75.810728 8.236548 -2.322209 -32.036808 50.227913 -30.478893 
-280.881500 12.781280 -171.714798 -1.567388 68.797743 88.722491 120.086979 0.957676 177.091055 -127.431987 2.921090 -1.669701 73.206425 -5.731327 -21.164567 21.454557 0.003092 0.000005 119.559511 -12.499763 -166.246026 -94.839765 -2.165054 7.710682 71.514539 -0.629209 14.851401 21.454558 -0.003108 -0.000023 10.335042 1.898871 0.164061 10.671169 3.748945 0.505757 10.352337 3.752070 0.483124 21.176025 -41.617883 -3.023174 -23.573309 -1.321472 -3.567874 73.317443 -77.015827 105.948173 -90.108432 42.068306 -100.794030 -98.795770 3.698286 2.436000 10.955409 -28.504546 -22.212532 104.093026 71.879593 -75.913502 -76.727244 -55.552142 35.356628 -75.816937 8.245960 -2.323686 -32.079356 50.156661 -30.523965 
-280.880310 12.780200 -171.716797 -1.559522 68.809361 88.725114 120.096869 0.959602 177.080099 -127.429678 2.921563 -1.672139 73.199083 -5.718745 -21.126327 21.454545 0.003103 0.000004 119.570808 -12.497499 -166.248717 -94.838112 -2.165416 7.711710 71.502190 -0.630800 14.844183 21.454555 -0.003102 -0.000017 10.339907 1.898516 0.163064 10.680960 3.749619 0.510612 10.362141 3.752745 0.487986 21.213166 -41.555711 -3.012874 -23.606867 -1.370934 -3.519225 73.276107 -77.007514 105.989455 -90.112660 42.062351 -100.792965 -98.782424 3.691052 2.435790 11.010580 -28.504430 -22.229312 104.182030 71.823346 -75.829300 -76.715469 -55.599895 35.432173 -75.824805 8.254611 -2.324978 -32.140169 50.130337 -30.497990 
-280.878815 12.779700 -171.718796 -1.549136 68.820276 88.733317 120.105188 0.963702 177.069021 -127.428012 2.922043 -1.674223 73.189411 -5.703591 -21.081287 21.454545 0.003089 0.000005 119.582638 -12.496003 -166.250069 -94.836439 -2.165928 7.715091 71.494124 -0.634731 14.836195 21.454555 -0.003106 -0.000021 10.345416 1.897934 0.162222 10.692101 3.750677 0.512853 10.373280 3.753816 0.490249 21.235582 -41.521478 -2.991977 -23.625119 -1.391447 -3.478072 73.231704 -77.020737 106.032219 -90.140404 42.050589 -100.791312 -98.770710 3.685486 2.435566 11.106580 -28.515198 -22.278361 104.188013 71.796408 -75.825359 -76.739422 -55.634746 35.514480 -75.835665 8.257172 -2.326035 -32.222862 50.169024 -30.442273 
-280.877014 12.780490 -171.720200 -1.535234 68.829674 88.752735 120.113617 0.972702 177.063297 -127.426905 2.922521 -1.675720 73.185928 -5.694345 -21.062464 21.454541 0.003096 0.000006 119.596121 -12.495112 -166.251135 -94.834916 -2.166574 7.721205 71.497867 -0.640850 14.832311 21.454551 -0.003111 -0.000018 10.350362 1.897161 0.161509 10.702005 3.751917 0.514557 10.383174 3.755066 0.491947 21.258008 -41.484052 -2.968406 -23.641566 -1.431431 -3.425514 73.211780 -77.039152 106.050421 -90.166154 42.038592 -100.788102 -98.761230 3.682682 2.435366 11.164251 -28.548671 -22.347841 104.168001 71.772297 -75.848363 -76.752495 -55.661442 35.578274 -75.842987 8.256839 -2.326898 -32.291693 50.157317 -30.444165 
